<?xml version="1.0" encoding="UTF-8" standalone="no"?>
<svg width="148px" height="34px" viewBox="0 0 148 34" version="1.1" xmlns="http://www.w3.org/2000/svg" xmlns:xlink="http://www.w3.org/1999/xlink" xmlns:sketch="http://www.bohemiancoding.com/sketch/ns">
    <!-- Generator: Sketch 3.0.4 (8053) - http://www.bohemiancoding.com/sketch -->
    <title>Logo</title>
    <desc>Created with Sketch.</desc>
    <defs>
        <linearGradient x1="105.879843%" y1="55.204618%" x2="-4.92712234%" y2="55.2046173%" id="linearGradient-1">
            <stop stop-color="#21DBCB" offset="0%"></stop>
            <stop stop-color="#007AA0" offset="100%"></stop>
        </linearGradient>
    </defs>
    <g id="Page-1" stroke="none" stroke-width="1" fill="none" fill-rule="evenodd" sketch:type="MSPage">
        <g id="Home---Banner-17" sketch:type="MSArtboardGroup" transform="translate(-195.000000, -20.000000)">
            <g id="Logo" sketch:type="MSLayerGroup" transform="translate(195.000000, 21.000000)">
                <g id="Imported-Layers-11" sketch:type="MSShapeGroup">
                    <path d="M16.4490544,7.85916548 L20.8359104,-0.122698916 L20.6860951,9.00480959 L28.4346899,4.30846345 L23.7883472,12.1405868 L32.8203043,11.9900093 L24.9235497,16.4224265 L32.8203043,20.8548437 L23.7883472,20.702593 L28.4346899,28.5334616 L20.6860951,23.837952 L20.8359104,32.9675519 L16.4490544,24.9873606 L12.0626123,32.9675519 L12.2128415,23.837952 L4.46507443,28.5334616 L9.1101755,20.702593 L0.0782184695,20.8548437 L7.97538691,16.4224265 L0.0782184695,11.9900093 L9.1101755,12.1405868 L4.46507443,4.30846345 L12.2128415,9.00480959 L12.0626123,-0.122698916 L16.4490544,7.85916548" id="Fill-1" fill="url(#linearGradient-1)"></path>
                    <path d="M7.97538691,16.4224265 L16.4490544,16.4224265 L9.1101755,12.1405868 L0.0782184695,11.9900093 L7.97538691,16.4224265" id="Fill-2" fill-opacity="0.151199058" fill="#000C4E"></path>
                    <path d="M12.2128415,9.00480959 L12.0626123,-0.122698916 L16.4490544,7.85916548 L16.4490544,16.4224265 L12.2128415,9.00480959" id="Fill-3" fill-opacity="0.151199058" fill="#000C4E"></path>
                    <path d="M16.4490544,16.4224265 L20.6860951,9.00480959 L28.4346899,4.31180962" id="Fill-4" fill-opacity="0.151199058" fill="#000C4E"></path>
                    <path d="M4.46507443,28.5334616 L9.1101755,20.702593 L16.4490544,16.4224265" id="Fill-5" fill-opacity="0.151199058" fill="#000C4E"></path>
                </g>
                <path d="M46.0811959,11.2476835 C48.3453797,11.2476835 49.4133908,12.4350333 49.4133908,14.3347929 L49.4133908,14.6154392 L52.6601449,14.5506747 C52.7028653,14.3132047 52.7242255,14.0757348 52.7242255,13.8166767 C52.7242255,11.8737407 51.7843757,8.63551402 46.1452766,8.63551402 C41.6809898,8.63551402 38.7546392,11.3124481 38.7546392,16.2993171 C38.7546392,21.3077743 41.6809898,23.9631202 46.1452766,23.9631202 C51.720295,23.9631202 52.7242255,20.7680699 52.7242255,18.7819575 C52.7242255,18.5228994 52.7028653,18.2638413 52.6601449,18.0479595 L49.4133908,17.983195 L49.4133908,18.2422531 C49.4133908,20.05566 48.3667399,21.3509507 46.0811959,21.3509507 C43.6888509,21.3509507 42.1295545,19.5807201 42.1295545,16.2993171 C42.1295545,13.0395023 43.7102111,11.2476835 46.0811959,11.2476835 Z M55.0524899,23.7472384 L58.1283622,23.7472384 L58.1283622,13.1690313 L55.0524899,13.1690313 L55.0524899,23.7472384 Z M55.0524899,11.4851535 L58.1283622,11.4851535 L58.1283622,8.82980762 L55.0524899,8.82980762 L55.0524899,11.4851535 Z M61.7168798,20.5521881 C61.7168798,22.9052995 62.7635307,23.9631202 65.1985962,23.9631202 C66.3306881,23.9631202 67.5695811,23.7688266 68.42399,23.4665921 L68.231748,21.0055398 C67.5055004,21.3293625 66.7578926,21.5452443 66.1384461,21.5452443 C65.1345156,21.5452443 64.792752,21.1134807 64.792752,20.1420127 L64.792752,15.0903791 L68.3385491,15.0903791 L68.3385491,13.1690313 L64.792752,13.1690313 L64.792752,10.7727436 L62.314966,10.7727436 L61.930482,13.1690313 L59.7944596,13.1690313 L59.7944596,15.0903791 L61.7168798,15.0903791 L61.7168798,20.5521881 Z M70.3677704,23.7472384 L73.4436426,23.7472384 L73.4436426,13.1690313 L70.3677704,13.1690313 L70.3677704,23.7472384 Z M70.3677704,11.4851535 L73.4436426,11.4851535 L73.4436426,8.82980762 L70.3677704,8.82980762 L70.3677704,11.4851535 Z M75.6010252,23.7472384 L84.9568032,23.7472384 L84.9568032,21.5236561 L81.5818879,21.5236561 C80.7488391,21.5236561 79.87307,21.5668325 79.1254621,21.6747733 L79.0827417,21.4804797 C79.680828,21.0487162 80.4284358,20.3794827 80.9197209,19.7966019 L84.9568032,14.9392619 L84.9568032,13.1690313 L75.8573479,13.1690313 L75.8573479,15.3926136 L78.9545803,15.3926136 C79.7235484,15.3926136 80.5993176,15.3494373 81.3682856,15.2630846 L81.3896459,15.4573782 C80.83428,15.802789 80.1080324,16.4504343 79.6594677,16.9685506 L75.6010252,21.761126 L75.6010252,23.7472384 Z M86.5160996,18.4581349 C86.5160996,21.9554196 88.3530788,23.9631202 91.9202362,23.9631202 C96.2350014,23.9631202 96.9185286,21.761126 96.9185286,20.5521881 C96.9185286,20.4442472 96.8971683,20.29313 96.8758081,20.1636009 L94.0135381,20.0988364 L94.0135381,20.3794827 C94.0135381,20.9839517 93.5436132,21.8043024 91.9415964,21.8043024 C90.3823001,21.8043024 89.5065309,20.9191871 89.5065309,18.8251339 L96.8758081,18.8251339 C96.9398888,18.3286058 97.0039695,17.5730196 97.0039695,17.0333151 C97.0039695,14.6586156 95.1883504,12.9531496 91.9843169,12.9531496 C88.182197,12.9531496 86.5160996,15.3710255 86.5160996,18.4581349 Z M89.5919718,17.0549033 C89.7201331,15.6084954 90.6386228,14.9824383 92.0056771,14.9824383 C93.1804894,14.9824383 94.1844199,15.5869072 94.1844199,16.774257 C94.1844199,16.8390215 94.1844199,16.9469624 94.1630597,17.0549033 L89.5919718,17.0549033 Z M99.1827123,23.7472384 L102.258585,23.7472384 L102.258585,16.3424935 C102.707149,15.6948481 103.412037,15.1767319 104.330526,15.1767319 C105.441258,15.1767319 106.082065,15.6948481 106.082065,17.4650787 L106.082065,23.7472384 L109.157937,23.7472384 L109.157937,17.2060206 C109.157937,14.1404993 107.57728,12.9531496 105.270376,12.9531496 C103.561558,12.9531496 102.536267,13.8814412 101.980902,14.7233801 L101.83138,14.7233801 L101.446896,13.1690313 L99.1827123,13.1690313 L99.1827123,23.7472384 Z M111.913406,23.7472384 L115.074719,23.7472384 L115.074719,16.4720225 C115.074719,15.3062609 114.967918,13.9677939 114.818396,12.9099732 L115.010638,12.9099732 C115.501923,13.9893821 115.993208,14.9392619 116.591295,15.8243772 L121.86727,23.7472384 L125.135384,23.7472384 L125.135384,8.8513958 L121.952711,8.8513958 L121.952711,16.2777289 C121.952711,17.2060206 122.059512,18.5228994 122.209034,19.6670728 L122.016792,19.6670728 C121.610947,18.8035457 121.012861,17.6809605 120.500216,16.9037861 L115.20288,8.8513958 L111.913406,8.8513958 L111.913406,23.7472384 Z M127.399568,18.4581349 C127.399568,21.9554196 129.236547,23.9631202 132.803705,23.9631202 C137.11847,23.9631202 137.801997,21.761126 137.801997,20.5521881 C137.801997,20.4442472 137.780637,20.29313 137.759276,20.1636009 L134.897006,20.0988364 L134.897006,20.3794827 C134.897006,20.9839517 134.427082,21.8043024 132.825065,21.8043024 C131.265768,21.8043024 130.389999,20.9191871 130.389999,18.8251339 L137.759276,18.8251339 C137.823357,18.3286058 137.887438,17.5730196 137.887438,17.0333151 C137.887438,14.6586156 136.071819,12.9531496 132.867785,12.9531496 C129.065665,12.9531496 127.399568,15.3710255 127.399568,18.4581349 Z M130.47544,17.0549033 C130.603601,15.6084954 131.522091,14.9824383 132.889145,14.9824383 C134.063958,14.9824383 135.067888,15.5869072 135.067888,16.774257 C135.067888,16.8390215 135.067888,16.9469624 135.046528,17.0549033 L130.47544,17.0549033 Z M140.877869,20.5521881 C140.877869,22.9052995 141.92452,23.9631202 144.359586,23.9631202 C145.491677,23.9631202 146.73057,23.7688266 147.584979,23.4665921 L147.392737,21.0055398 C146.66649,21.3293625 145.918882,21.5452443 145.299435,21.5452443 C144.295505,21.5452443 143.953741,21.1134807 143.953741,20.1420127 L143.953741,15.0903791 L147.499538,15.0903791 L147.499538,13.1690313 L143.953741,13.1690313 L143.953741,10.7727436 L141.475955,10.7727436 L141.091471,13.1690313 L138.955449,13.1690313 L138.955449,15.0903791 L140.877869,15.0903791 L140.877869,20.5521881 Z" id="CitizenNet-4" fill="#FFFFFF" sketch:type="MSShapeGroup"></path>
            </g>
        </g>
    </g>
</svg>